<svg width="200" height="43" viewBox="0 0 200 43" fill="none" xmlns="http://www.w3.org/2000/svg">
<g clip-path="url(#clip0_36_126)">
<path fill-rule="evenodd" clip-rule="evenodd" d="M2.76911 14.4302C4.94158 14.539 7.09988 14.8429 9.21792 15.3383C11.2651 15.7889 13.2221 16.5799 15.0074 17.6783C16.5973 18.7077 17.9323 19.9804 18.4636 21.8937C18.5734 22.2906 18.6411 22.6986 18.7257 23.1011C19.1187 24.9787 20.6313 25.838 22.1587 26.159C24.4661 26.6432 26.7019 26.1569 28.9429 25.6492C32.171 24.9183 35.1924 23.6306 38.216 22.3355C38.3353 22.282 38.4652 22.2559 38.5959 22.2593C38.7267 22.2627 38.855 22.2955 38.9714 22.3551C39.0623 22.4655 39.1305 22.5927 39.1721 22.7294C39.2138 22.8661 39.2281 23.0097 39.2142 23.152C39.1515 23.7303 39.0515 24.304 38.9149 24.8695C38.8341 25.2395 38.6535 25.5803 38.3927 25.855C38.132 26.1296 37.8009 26.3276 37.4356 26.4274C34.9777 27.2587 32.5349 28.1432 30.0429 28.8517C27.9914 29.4783 25.8487 29.7541 23.7054 29.6674C22.1801 29.5776 20.6906 29.2815 19.499 28.1794C18.7222 27.4512 18.2311 26.4695 18.1141 25.4113C18.007 24.6177 17.7367 23.8548 17.3203 23.1708C16.904 22.4867 16.3505 21.8962 15.6948 21.4365C13.7888 19.9762 11.5671 19.2316 9.25335 18.6941C6.65169 18.1002 3.98487 17.8408 1.31752 17.9221C0.499624 17.9428 0.207693 17.5621 0.350851 16.7277C0.425544 16.3218 0.525029 15.9208 0.648748 15.527C0.923486 14.6228 1.19542 14.4312 2.14735 14.4302H2.76911Z" fill="#005298"/>
<path fill-rule="evenodd" clip-rule="evenodd" d="M5.24696 8.89541C8.82031 9.33156 12.2926 10.0954 15.3386 12.1628C16.8151 13.1656 17.9783 14.4397 18.4944 16.2007C18.6821 16.847 18.7253 17.5495 18.9976 18.153C19.6969 19.7007 21.079 20.3085 22.6548 20.4856C26.0776 20.8716 29.3085 19.9632 32.4885 18.867C34.0952 18.3134 35.664 17.6337 37.2419 16.9958C37.711 16.8063 38.5598 16.4723 38.9829 16.9365C39.1994 17.1737 39.2247 17.7042 39.2808 18.0148C39.5138 19.2916 39.157 19.9604 37.9454 20.4569C35.4104 21.5123 32.8043 22.3879 30.1464 23.0772C28.1931 23.6205 26.1769 23.9047 24.1495 23.9225C22.6123 23.9043 21.0856 23.6913 19.7986 22.6885C19.3257 22.3122 18.9321 21.8459 18.6406 21.3165C18.349 20.787 18.1654 20.2051 18.1004 19.6042C17.9201 18.2716 17.2621 17.0497 16.2488 16.1656C14.3421 14.4505 12.0066 13.6172 9.56452 13.0249C7.63391 12.5441 5.6579 12.2687 3.6694 12.2031C3.42506 12.1837 3.18456 12.1307 2.95466 12.0456C2.84798 12.0223 2.74793 11.9752 2.662 11.9079C2.57608 11.8405 2.50649 11.7546 2.45844 11.6565C2.41039 11.5585 2.38513 11.4508 2.38453 11.3416C2.38394 11.2324 2.40803 11.1245 2.45501 11.0259C2.72112 10.446 3.05821 9.9014 3.45853 9.40454C3.9073 8.88734 4.58976 8.87541 5.24801 8.89576" fill="#005298"/>
<path fill-rule="evenodd" clip-rule="evenodd" d="M24.4892 35.3392C22.9713 35.4185 21.4913 35.2567 20.1643 34.4297C19.6831 34.1499 19.2672 33.7707 18.9442 33.3174C18.6213 32.8641 18.3988 32.3471 18.2917 31.8009C17.9682 30.1167 17.4264 28.5749 16.0513 27.4479C14.7909 26.4354 13.3566 25.661 11.8186 25.1626C9.64245 24.4028 7.37246 23.9447 5.07194 23.8009C3.90983 23.7366 2.74842 23.6605 1.58561 23.617C0.504201 23.577 0.187709 23.2889 0.117182 22.2261C0.0954273 21.8889 0.047006 21.5542 0.00981285 21.2177C-0.060363 20.5633 0.262095 20.118 0.922098 20.1447C2.49614 20.2078 4.08001 20.25 5.63896 20.4636C7.2893 20.6916 8.92425 21.0197 10.5348 21.4461C12.6295 21.9765 14.5814 22.9628 16.251 24.3345C17.6096 25.4893 18.4979 27.102 18.7475 28.8675C19.0531 30.5812 20.3057 31.464 21.9113 31.8342C24.0678 32.3332 26.1984 32.0051 28.3236 31.5437C30.7981 30.972 33.2196 30.1916 35.5623 29.2111C35.9598 29.0507 36.3493 28.8686 36.7553 28.7419C36.845 28.7091 36.9408 28.6961 37.0361 28.7037C37.1313 28.7113 37.2238 28.7395 37.3072 28.7861C37.3516 28.8698 37.3751 28.9629 37.3758 29.0576C37.3766 29.1522 37.3545 29.2457 37.3114 29.33C36.7619 30.29 36.2275 31.2662 35.5942 32.1697C34.9275 33.1248 33.8609 33.4981 32.7963 33.8318C30.6385 34.5252 28.4235 35.026 26.1773 35.3283C25.6149 35.3672 25.0507 35.3707 24.4878 35.3388" fill="#71B32F"/>
<path fill-rule="evenodd" clip-rule="evenodd" d="M6.03539 29.619C6.33153 29.8748 6.6196 30.1425 6.92557 30.3871C8.95049 32.0046 11.0238 33.5664 12.9926 35.2496C14.5973 36.5599 15.9125 38.1891 16.8547 40.0342C15.9863 39.8391 15.2056 39.7128 14.4575 39.4882C11.9411 38.7445 9.58293 37.5442 7.50066 35.9475C4.78486 33.8548 2.63642 31.3401 1.53607 28.0302C1.42577 27.6909 1.34431 27.3429 1.29256 26.9899C1.26011 26.8597 1.2604 26.7235 1.29339 26.5935C1.32639 26.4635 1.39106 26.3436 1.48165 26.2447C1.57223 26.1457 1.6859 26.0707 1.81252 26.0264C1.93914 25.982 2.07477 25.9697 2.2073 25.9906C3.38655 26.056 4.56014 26.1998 5.7203 26.4211C7.5182 26.8239 9.3126 27.2965 11.0621 27.8741C13.1591 28.5466 15.0779 29.6825 16.6761 31.1976C18.0193 32.5024 18.9323 34.1861 19.293 36.0236C19.5705 37.3948 19.7569 38.7829 19.8509 40.1787C18.3974 37.5498 16.4305 35.2398 14.067 33.3857C11.7368 31.5349 9.05211 30.1811 6.17855 29.4078C6.13048 29.478 6.08346 29.5481 6.03539 29.6183" fill="#71B32F"/>
<path fill-rule="evenodd" clip-rule="evenodd" d="M24.3696 18.239C23.0538 18.2057 21.7551 17.9337 20.5366 17.4362C19.1579 16.8604 18.3239 15.4397 18.1092 13.9976C17.8351 12.1569 16.8274 10.8607 15.4028 9.8323C13.5993 8.52879 11.5323 7.82597 9.38421 7.34106C8.56386 7.15439 7.73508 7.00913 6.92806 6.77965C6.23788 6.58141 6.13226 6.14246 6.67262 5.69193C7.45157 5.04035 8.13017 4.12139 9.26912 4.15999C10.0087 4.20736 10.7378 4.35988 11.4344 4.61298C13.6242 5.34456 15.6313 6.39018 17.1951 8.16668C18.1 9.1937 18.4618 10.4246 18.7299 11.726C19.0548 13.305 20.1285 14.1821 21.6225 14.6193C23.4008 15.1386 25.1773 14.9636 26.9664 14.6702C30.1419 14.1502 33.1324 13.0516 36.1026 11.8632C36.8665 11.5569 37.4047 11.7151 37.7584 12.5327C37.8637 12.7727 37.9409 13.0239 38.0391 13.2671C38.2258 13.7376 38.371 14.3299 37.9412 14.7144C37.7194 14.8882 37.4663 15.0178 37.1956 15.0962C36.0159 15.5197 34.837 15.9432 33.6517 16.3499C30.7626 17.3397 27.5134 18.3499 24.3706 18.238" fill="#005298"/>
<path fill-rule="evenodd" clip-rule="evenodd" d="M24.465 12.66C22.9236 12.6439 21.4369 12.452 20.0934 11.6109C18.8797 10.8513 18.3127 9.66635 18.1081 8.34143C17.9934 7.56983 17.7258 6.8289 17.321 6.16204C16.9163 5.49518 16.3825 4.91582 15.7509 4.4579C15.1165 3.97158 14.3748 3.63088 13.7169 3.16912C13.3817 2.89013 13.0719 2.5819 12.7913 2.24806C13.0941 2.02453 13.4166 1.82899 13.7548 1.66385C15.5404 0.974724 16.3313 1.4249 17.4741 2.86351C18.238 3.82281 18.4881 4.97159 18.7411 6.13159C19.0594 7.59511 20.0488 8.47231 21.4106 8.91792C23.3053 9.53793 25.2383 9.42705 27.1366 8.97617C29.224 8.48108 31.2843 7.86809 33.3552 7.30248C33.6141 7.21175 33.8956 7.20818 34.1567 7.29231C34.4179 7.37644 34.6443 7.54365 34.8016 7.76844C35.1138 8.16809 35.43 8.56564 35.7195 8.98108C35.7992 9.07451 35.8542 9.18645 35.8796 9.30665C35.9049 9.42685 35.8997 9.55148 35.8644 9.66914C35.8291 9.78681 35.7649 9.89374 35.6776 9.98017C35.5903 10.0666 35.4827 10.1298 35.3647 10.1639C33.7886 10.6934 32.2173 11.2516 30.6089 11.6657C29.1447 12.0429 27.6398 12.2622 26.1464 12.5197C25.5938 12.6155 25.0261 12.6165 24.464 12.66" fill="#71B32F"/>
<path fill-rule="evenodd" clip-rule="evenodd" d="M24.2713 7.27687C22.7099 7.20072 21.2281 6.97827 19.959 5.98563C18.8225 5.09791 18.3604 3.84878 18.0804 2.49789C18.0074 2.14947 17.905 1.80456 17.8653 1.45298C17.8429 1.2635 17.8793 0.914376 17.9572 0.894025C18.2182 0.83298 18.4903 0.83744 18.7492 0.907008C18.8836 0.942095 19.0085 1.12876 19.0818 1.27438C19.8032 2.70982 21.1137 3.21193 22.5597 3.44983C24.2885 3.73474 25.9931 3.42492 27.7075 3.19334C28.3901 3.12835 29.0783 3.23035 29.7127 3.49053C30.3367 3.79313 30.9204 4.17244 31.4503 4.61966C31.9854 5.00563 31.9387 5.51405 31.3191 5.72002C30.1729 6.12251 29.0064 6.46439 27.8243 6.74423C26.6566 7.00143 25.4573 7.10529 24.2717 7.27651" fill="#71B32F"/>
<path fill-rule="evenodd" clip-rule="evenodd" d="M20.9116 40.2675C21.9828 38.9543 23.3319 37.8951 24.8618 37.1661C26.3973 36.3824 28.0646 35.8896 29.7794 35.7124C30.302 35.6727 30.8276 35.7146 31.3373 35.8366C31.5703 35.8871 31.7548 36.1678 31.9608 36.3436C31.8306 36.515 31.6803 36.67 31.5131 36.8054C29.246 38.1959 26.7551 39.1831 24.1509 39.7229C23.2737 39.91 22.3867 40.0696 21.5022 40.2328C21.3062 40.257 21.109 40.2683 20.9116 40.2675Z" fill="#71B32F"/>
<path d="M73.3629 33.3925C73.3599 33.351 73.3671 33.3095 73.3837 33.2715C73.4004 33.2334 73.4262 33.2001 73.4587 33.1742C73.5428 33.1145 73.6351 33.0673 73.7327 33.0339L74.7969 32.6626C74.8116 32.6596 74.8265 32.6581 74.8415 32.6581H74.8808C74.925 32.6521 74.9701 32.6584 75.011 32.6763C75.0519 32.6942 75.0871 32.7229 75.1127 32.7595C75.1555 32.8411 75.1758 32.9327 75.1717 33.0248L75.1671 34.5058H75.9496C75.9944 34.5037 76.0392 34.5105 76.0814 34.5259C76.1236 34.5412 76.1622 34.5648 76.1952 34.5953C76.2286 34.631 76.2542 34.6733 76.2703 34.7195C76.2865 34.7656 76.293 34.8146 76.2892 34.8634V35.7707C76.294 35.8228 76.288 35.8752 76.2719 35.9249C76.2557 35.9746 76.2296 36.0205 76.1952 36.0599C76.1626 36.091 76.124 36.1152 76.0818 36.131C76.0396 36.1468 75.9946 36.1539 75.9496 36.1518H75.1671L75.1717 39.9318C75.1752 39.9817 75.1679 40.0317 75.15 40.0785C75.1322 40.1252 75.1044 40.1675 75.0685 40.2023C74.9881 40.2674 74.8862 40.3 74.7829 40.2939H73.7236C73.6745 40.3009 73.6244 40.2963 73.5774 40.2805C73.5304 40.2647 73.4877 40.2382 73.4527 40.2031C73.4177 40.168 73.3913 40.1251 73.3757 40.0781C73.3602 40.031 73.3558 39.9809 73.3629 39.9318L73.358 36.1518H73.0155C72.7753 36.1518 72.6551 36.0248 72.6548 35.7707V34.8641C72.6481 34.8152 72.6528 34.7655 72.6686 34.7189C72.6844 34.6722 72.7109 34.6298 72.7459 34.5952C72.7808 34.5605 72.8234 34.5344 72.8702 34.519C72.917 34.5036 72.9668 34.4994 73.0155 34.5065H73.358L73.3629 33.3925Z" fill="#71B32F"/>
<path d="M77.3941 34.6707C77.3939 34.6176 77.4059 34.5651 77.4292 34.5174C77.4494 34.4732 77.479 34.4339 77.5159 34.4023C77.5906 34.3513 77.6788 34.3237 77.7692 34.323H78.4769C78.5259 34.3206 78.5745 34.332 78.6173 34.356C78.6517 34.378 78.6813 34.4067 78.7043 34.4405C78.7286 34.4775 78.749 34.5169 78.765 34.5581C78.783 34.6032 78.8041 34.6471 78.8282 34.6893C78.8341 34.7019 78.8471 34.7325 78.8654 34.7809C78.8836 34.8293 78.905 34.8826 78.9264 34.9409C78.9478 34.9991 78.9696 35.0539 78.9899 35.1051L79.0296 35.2065C79.1231 35.1031 79.213 34.9942 79.299 34.8798C79.3832 34.7683 79.475 34.6628 79.5738 34.564C79.6686 34.4681 79.7776 34.3873 79.8969 34.3244C80.0274 34.2588 80.172 34.2264 80.318 34.23C80.4696 34.2283 80.621 34.241 80.7703 34.2679C80.8995 34.2919 81.026 34.3288 81.1478 34.3781C81.2711 34.4291 81.3893 34.4913 81.5012 34.564C81.6183 34.6388 81.7468 34.7272 81.8833 34.8272C82.0994 34.9442 82.1401 35.1167 82.0054 35.3448L81.5815 36.0721C81.5301 36.1576 81.4476 36.2198 81.3513 36.2458C81.2511 36.2662 81.1469 36.2511 81.0566 36.203C80.9376 36.0827 80.799 35.9834 80.6468 35.9093C80.4969 35.8432 80.3344 35.8104 80.1706 35.8132C80.0614 35.8111 79.9527 35.8284 79.8496 35.8644C79.7583 35.8986 79.6735 35.948 79.5987 36.0104C79.5201 36.0772 79.4495 36.1527 79.3882 36.2356C79.3225 36.3234 79.2569 36.4213 79.191 36.5276V39.9311C79.1987 39.9815 79.1942 40.033 79.1779 40.0814C79.1616 40.1297 79.134 40.1734 79.0973 40.2089C79.0607 40.2443 79.016 40.2705 78.9672 40.2852C78.9184 40.2998 78.8667 40.3026 78.8166 40.2932H77.7611C77.7118 40.3005 77.6614 40.2962 77.614 40.2806C77.5665 40.265 77.5234 40.2386 77.488 40.2035C77.4525 40.1684 77.4257 40.1254 77.4098 40.0782C77.3938 40.0309 77.389 39.9805 77.3959 39.9311L77.3941 34.6707Z" fill="#71B32F"/>
<path d="M89.2808 39.9455C89.281 39.9979 89.2713 40.0499 89.2524 40.0988C89.2346 40.1465 89.2015 40.1869 89.1583 40.2139C89.1253 40.2472 89.083 40.2699 89.0369 40.2788C88.9968 40.2876 88.9559 40.2926 88.9148 40.2935H87.992C87.9375 40.2956 87.8831 40.2868 87.832 40.2676C87.7935 40.2521 87.7596 40.2271 87.7334 40.1949C87.7067 40.1599 87.6854 40.1211 87.6703 40.0798C87.6531 40.0342 87.6352 39.9848 87.6162 39.9314L87.4808 39.5788C87.3959 39.6633 87.3053 39.7542 87.2036 39.8497C87.1011 39.9471 86.9907 40.0359 86.8734 40.1149C86.7509 40.1975 86.6196 40.2661 86.4818 40.3195C86.3384 40.3749 86.1858 40.4029 86.032 40.4019C85.4875 40.4046 84.9523 40.2607 84.4825 39.9855C84.257 39.8533 84.0497 39.6921 83.866 39.5062C83.6818 39.3194 83.522 39.11 83.3906 38.883C83.2561 38.6507 83.153 38.4017 83.0839 38.1423C83.0112 37.8717 82.9749 37.5926 82.9762 37.3125C82.9724 36.8954 83.0537 36.4819 83.2151 36.0974C83.3677 35.7327 83.5887 35.4007 83.866 35.1191C84.1502 34.8347 84.4879 34.6095 84.8597 34.4566C85.2315 34.3036 85.63 34.226 86.032 34.2282C86.2136 34.2264 86.3941 34.2558 86.5657 34.3152C86.7232 34.3708 86.8724 34.4476 87.0092 34.5433C87.1407 34.6363 87.2616 34.7435 87.3696 34.863C87.4738 34.9771 87.5702 35.0981 87.6583 35.2251L87.8408 34.656C87.8719 34.5778 87.8976 34.5145 87.918 34.4661C87.9332 34.4263 87.9556 34.3895 87.9839 34.3577C88.0078 34.3342 88.0379 34.318 88.0706 34.311C88.1186 34.302 88.1674 34.298 88.2162 34.2991H88.9145C88.9556 34.2997 88.9965 34.3046 89.0366 34.3135C89.0828 34.3225 89.1252 34.3454 89.158 34.3791C89.1991 34.4093 89.2316 34.4499 89.252 34.4967C89.2717 34.5444 89.2814 34.5956 89.2804 34.6472L89.2808 39.9455ZM84.6639 37.3139C84.6623 37.5115 84.6947 37.7079 84.7597 37.8946C84.8196 38.067 84.9128 38.2259 85.0341 38.3623C85.1584 38.4996 85.3105 38.6089 85.4803 38.6827C85.6502 38.7565 85.8338 38.7932 86.019 38.7904C86.2192 38.7923 86.4177 38.7531 86.6022 38.6753C86.777 38.6018 86.9362 38.4957 87.0713 38.3626C87.2054 38.2291 87.3115 38.0701 87.3832 37.8949C87.495 37.6217 87.5251 37.3219 87.4697 37.0319C87.4143 36.742 87.2759 36.4744 87.0713 36.2616C86.9377 36.1231 86.7783 36.012 86.6022 35.9346C86.4184 35.8539 86.2197 35.8131 86.019 35.8149C85.8272 35.8124 85.6373 35.8533 85.4636 35.9346C85.2992 36.0123 85.153 36.1237 85.0345 36.2616C84.9139 36.4029 84.8209 36.5654 84.7601 36.7409C84.6958 36.9252 84.6634 37.119 84.6643 37.3142" fill="#71B32F"/>
<path d="M198.789 31.949H199.634C199.675 31.9496 199.716 31.9545 199.756 31.9634C199.803 31.9724 199.845 31.9953 199.878 32.029C199.919 32.0594 199.951 32.0999 199.972 32.1465C199.991 32.1942 200.001 32.2455 200 32.2971V39.9462C200 39.9987 199.991 40.0507 199.972 40.0996C199.949 40.1423 199.919 40.1803 199.882 40.2112C199.845 40.2422 199.802 40.2655 199.756 40.2799C199.716 40.2887 199.675 40.2937 199.634 40.2946H198.712C198.657 40.2967 198.603 40.2879 198.552 40.2687C198.513 40.2532 198.479 40.2282 198.453 40.196C198.426 40.1611 198.405 40.1223 198.39 40.081C198.373 40.0353 198.355 39.9859 198.336 39.9325L198.2 39.5799C198.115 39.6645 198.025 39.7553 197.923 39.8508C197.821 39.9483 197.71 40.037 197.593 40.116C197.47 40.1986 197.339 40.2672 197.201 40.3206C197.058 40.376 196.905 40.404 196.752 40.4031C196.207 40.4057 195.672 40.2618 195.202 39.9866C194.977 39.8544 194.769 39.6933 194.586 39.5073C194.401 39.3205 194.242 39.1111 194.11 38.8841C193.976 38.6518 193.873 38.4027 193.803 38.1434C193.73 37.8729 193.694 37.5938 193.695 37.3136C193.691 36.8965 193.773 36.483 193.934 36.0985C194.087 35.7339 194.308 35.4018 194.585 35.1202C194.869 34.8358 195.207 34.6106 195.579 34.4577C195.951 34.3047 196.349 34.2271 196.751 34.2293C196.933 34.2275 197.114 34.257 197.286 34.3164C197.443 34.372 197.592 34.4487 197.729 34.5444C197.86 34.6375 197.981 34.7447 198.089 34.8641C198.193 34.9784 198.289 35.0994 198.378 35.2262L198.413 32.3065C198.413 32.3065 198.409 32.1055 198.485 32.0406C198.573 31.9773 198.68 31.9452 198.788 31.9493M195.382 37.3132C195.38 37.5109 195.413 37.7073 195.478 37.8939C195.538 38.0663 195.631 38.2253 195.752 38.3617C195.877 38.499 196.029 38.6082 196.199 38.682C196.368 38.7558 196.552 38.7926 196.737 38.7897C196.937 38.7916 197.136 38.7525 197.32 38.6746C197.495 38.6011 197.654 38.495 197.789 38.362C197.923 38.2283 198.029 38.0693 198.101 37.8943C198.251 37.5241 198.251 37.1101 198.101 36.7399C198.029 36.5619 197.923 36.3993 197.789 36.2606C197.656 36.1221 197.497 36.011 197.32 35.9336C197.137 35.8529 196.938 35.8121 196.737 35.8139C196.545 35.8114 196.356 35.8523 196.182 35.9336C196.017 36.0113 195.871 36.1227 195.752 36.2606C195.632 36.4019 195.539 36.5644 195.478 36.7399C195.414 36.9243 195.381 37.1179 195.382 37.3132Z" fill="#71B32F"/>
<path d="M90.8934 34.4072C90.93 34.3746 90.9744 34.3519 91.0222 34.3412C91.0645 34.3321 91.1077 34.3272 91.151 34.3269H91.8591C91.9092 34.3256 91.959 34.3362 92.0043 34.3577C92.0443 34.3773 92.0796 34.4052 92.1078 34.4395C92.1364 34.4747 92.1593 34.5143 92.1756 34.5567C92.1927 34.6009 92.2106 34.6462 92.2247 34.6932L92.3703 35.2932C92.4287 35.1772 92.4969 35.0663 92.5742 34.9619C92.6706 34.8312 92.7851 34.7147 92.9142 34.616C93.0634 34.5012 93.2289 34.4094 93.4054 34.3437C93.6162 34.2664 93.8395 34.229 94.064 34.2335C94.3885 34.2279 94.7103 34.2939 95.0065 34.4267C95.3027 34.5595 95.566 34.7559 95.7777 35.0019C95.9866 35.2476 96.1477 35.5301 96.2528 35.8349C96.3668 36.162 96.4239 36.5061 96.4215 36.8525V39.9314C96.4285 40.0279 96.401 40.1238 96.344 40.202C96.3124 40.2345 96.274 40.2595 96.2315 40.2754C96.189 40.2912 96.1436 40.2974 96.0984 40.2936H95.0156C94.9181 40.3039 94.8201 40.2797 94.7387 40.2251C94.7092 40.1881 94.6873 40.1455 94.6744 40.0999C94.6615 40.0543 94.6578 40.0066 94.6636 39.9595V36.8991C94.6641 36.766 94.6329 36.6347 94.5728 36.516C94.5123 36.3958 94.4305 36.2876 94.3314 36.1967C94.2317 36.1043 94.1167 36.0302 93.9914 35.9777C93.8694 35.9254 93.7381 35.8982 93.6054 35.8977C93.4869 35.8991 93.3699 35.9247 93.2615 35.9728C93.1426 36.0243 93.0332 36.0955 92.938 36.1834C92.8384 36.2743 92.7545 36.381 92.6896 36.4991C92.6225 36.6199 92.5833 36.7542 92.5749 36.8921V39.9479C92.5745 40.0027 92.5641 40.057 92.544 40.1079C92.5267 40.1569 92.495 40.1994 92.4531 40.23C92.4175 40.2528 92.3787 40.2702 92.338 40.2816C92.2974 40.2917 92.2557 40.2965 92.2138 40.296H91.1545C91.1044 40.3039 91.0531 40.3002 91.0047 40.2851C90.9563 40.2699 90.912 40.2438 90.8753 40.2088C90.8386 40.1738 90.8104 40.1307 90.7931 40.083C90.7757 40.0354 90.7696 39.9843 90.7752 39.9339V34.6742C90.7747 34.6171 90.7882 34.5607 90.8145 34.51C90.8401 34.4618 90.8781 34.4213 90.9247 34.3928L90.8934 34.4072Z" fill="#71B32F"/>
<path d="M98.8001 38.436C98.882 38.5188 98.9743 38.5908 99.0745 38.6501C99.1651 38.7041 99.2598 38.751 99.3577 38.7904C99.4355 38.822 99.5156 38.8478 99.5973 38.8676C99.6433 38.8796 99.6903 38.8875 99.7377 38.8911C99.797 38.8911 99.8731 38.8887 99.9647 38.8841C100.054 38.8796 100.143 38.8653 100.23 38.8413C100.31 38.8201 100.385 38.7808 100.448 38.7262C100.479 38.6978 100.503 38.6629 100.519 38.6239C100.535 38.585 100.542 38.5429 100.539 38.5009C100.544 38.4271 100.526 38.3538 100.487 38.2904C100.449 38.2347 100.398 38.1893 100.338 38.1585C100.261 38.1178 100.18 38.0854 100.096 38.062C100.002 38.0336 99.8942 38.0006 99.7752 37.963C99.4516 37.8828 99.1396 37.7611 98.8471 37.6009C98.6272 37.4796 98.4311 37.3195 98.2682 37.1283C98.1309 36.964 98.0296 36.7727 97.9706 36.5669C97.9138 36.3601 97.8855 36.1466 97.8864 35.9322C97.8833 35.687 97.9362 35.4443 98.0412 35.2227C98.1447 35.0088 98.2955 34.8213 98.4822 34.6743C98.6864 34.5161 98.9182 34.3971 99.1657 34.3234C99.453 34.2373 99.7518 34.1953 100.052 34.1988C100.237 34.1977 100.423 34.2141 100.605 34.2479C100.774 34.2802 100.939 34.3324 101.096 34.4034C101.258 34.4772 101.411 34.5685 101.552 34.6757C101.711 34.7961 101.859 34.9291 101.995 35.0736C102.042 35.1209 102.071 35.1828 102.077 35.249C102.074 35.2842 102.062 35.3181 102.044 35.3484C102.026 35.3787 102.001 35.4047 101.972 35.4244C101.85 35.5248 101.734 35.6241 101.621 35.7209C101.509 35.8178 101.395 35.9262 101.276 36.0451C101.244 36.0738 101.206 36.094 101.164 36.1041C101.128 36.1117 101.091 36.1108 101.056 36.1016C101.021 36.0917 100.987 36.0759 100.958 36.055C100.926 36.0322 100.898 36.0053 100.873 35.975C100.773 35.8598 100.643 35.7747 100.498 35.7293C100.371 35.6891 100.238 35.6677 100.104 35.6658C99.9775 35.6598 99.8514 35.6874 99.7387 35.7458C99.6954 35.7693 99.6602 35.8053 99.6376 35.8491C99.615 35.8929 99.6061 35.9425 99.612 35.9915C99.6134 36.0278 99.6222 36.0636 99.638 36.0964C99.6538 36.1292 99.6763 36.1583 99.704 36.182C99.764 36.2306 99.8324 36.2679 99.9057 36.2922C99.9882 36.3211 100.073 36.344 100.158 36.3606C100.248 36.3778 100.329 36.3978 100.404 36.4195C100.667 36.5032 100.924 36.602 101.176 36.7153C101.398 36.8143 101.603 36.9467 101.785 37.108C101.957 37.2633 102.093 37.4532 102.186 37.6651C102.288 37.9158 102.336 38.1847 102.329 38.455C102.334 38.7431 102.27 39.0284 102.144 39.2873C102.023 39.5285 101.849 39.7391 101.635 39.9034C101.405 40.0764 101.145 40.2054 100.869 40.2838C100.559 40.3737 100.237 40.4182 99.9145 40.4157C99.7165 40.4153 99.519 40.3979 99.324 40.3638C99.1247 40.3299 98.9299 40.2741 98.7429 40.1974C98.5538 40.1196 98.3744 40.0201 98.2082 39.9009C98.0371 39.7779 97.8855 39.6298 97.7584 39.4616C97.725 39.4195 97.699 39.372 97.6812 39.3213C97.6641 39.2754 97.6559 39.2267 97.6569 39.1778C97.6584 39.1332 97.6681 39.0893 97.6857 39.0483C97.7037 39.0082 97.7319 38.9734 97.7675 38.9476L98.3724 38.3413C98.3971 38.3141 98.4284 38.2937 98.4632 38.2822C98.4981 38.2706 98.5353 38.2683 98.5713 38.2753C98.6561 38.3122 98.7321 38.3665 98.7945 38.4346" fill="#71B32F"/>
<path d="M104.27 34.4078C104.269 34.123 104.333 33.8416 104.458 33.5854C104.581 33.3308 104.751 33.1018 104.96 32.9106C105.171 32.7166 105.415 32.5621 105.681 32.4545C105.952 32.3437 106.241 32.2871 106.534 32.2878H106.628C106.673 32.285 106.719 32.2922 106.761 32.3089C106.804 32.3255 106.842 32.3513 106.873 32.3843C106.935 32.4586 106.966 32.5535 106.961 32.6499V33.5475C106.964 33.6515 106.932 33.7537 106.869 33.8366C106.841 33.8736 106.804 33.9034 106.762 33.9234C106.72 33.9434 106.674 33.9531 106.627 33.9517H106.533C106.469 33.9515 106.406 33.9634 106.346 33.9868C106.288 34.0097 106.234 34.0425 106.187 34.0836C106.141 34.1236 106.102 34.1722 106.075 34.2268C106.046 34.2829 106.032 34.345 106.032 34.4078V34.9485H106.769C106.814 34.9456 106.858 34.9518 106.901 34.9667C106.943 34.9816 106.982 35.0049 107.015 35.0352C107.079 35.1119 107.11 35.2109 107.102 35.3107V36.171C107.111 36.2771 107.08 36.3827 107.015 36.4671C106.983 36.4996 106.944 36.5247 106.902 36.541C106.86 36.5572 106.814 36.5641 106.769 36.5612H106.032V39.9324C106.036 39.9838 106.026 40.0352 106.006 40.0823C105.985 40.1294 105.953 40.1708 105.913 40.203C105.839 40.2618 105.747 40.294 105.653 40.2945H104.64C104.592 40.2968 104.543 40.2891 104.498 40.2718C104.452 40.2545 104.411 40.2281 104.376 40.1941C104.342 40.1601 104.314 40.1193 104.296 40.0743C104.278 40.0293 104.269 39.981 104.27 39.9324V36.5608H103.787C103.69 36.5652 103.595 36.5315 103.522 36.4668C103.486 36.4272 103.458 36.3803 103.441 36.3293C103.424 36.2783 103.417 36.2243 103.422 36.1707V35.3092C103.417 35.2588 103.424 35.208 103.441 35.1603C103.459 35.1127 103.486 35.0695 103.522 35.0338C103.597 34.9735 103.691 34.9427 103.787 34.9471H104.27L104.27 34.4078Z" fill="#71B32F"/>
<path d="M107.95 37.3124C107.947 36.9056 108.025 36.5023 108.179 36.1258C108.333 35.7493 108.56 35.4072 108.848 35.1194C109.033 34.9338 109.242 34.7734 109.469 34.6422C109.945 34.3696 110.485 34.227 111.034 34.2285C111.437 34.2267 111.837 34.3045 112.209 34.4574C112.582 34.6103 112.921 34.8352 113.207 35.1194C113.486 35.4008 113.709 35.7328 113.863 36.0977C114.026 36.4819 114.108 36.8955 114.104 37.3128C114.105 37.5931 114.069 37.8722 113.995 38.1426C113.923 38.4016 113.82 38.6506 113.686 38.8833C113.416 39.3471 113.029 39.7316 112.564 39.9983C112.098 40.2649 111.571 40.4043 111.035 40.4023C110.755 40.4034 110.477 40.367 110.207 40.2942C109.949 40.2239 109.702 40.1202 109.47 39.9858C109.014 39.7201 108.635 39.3402 108.371 38.8837C108.236 38.651 108.133 38.4021 108.062 38.143C107.988 37.8726 107.951 37.5934 107.952 37.3131M109.663 37.3131C109.661 37.5108 109.694 37.7072 109.759 37.8938C109.818 38.0658 109.911 38.2246 110.031 38.3616C110.15 38.4941 110.295 38.6005 110.457 38.6742C110.635 38.7532 110.828 38.7924 111.022 38.7893C111.212 38.7922 111.4 38.7528 111.573 38.6742C111.733 38.6006 111.875 38.494 111.99 38.3616C112.107 38.2244 112.197 38.0655 112.253 37.8938C112.375 37.5188 112.375 37.1145 112.253 36.7394C112.196 36.5647 112.107 36.4021 111.99 36.2601C111.873 36.1174 111.725 36.003 111.557 35.9256C111.39 35.8483 111.207 35.8099 111.022 35.8135C110.834 35.8094 110.647 35.8474 110.476 35.9247C110.304 36.002 110.152 36.1166 110.031 36.2601C109.912 36.4019 109.819 36.5644 109.759 36.7394C109.694 36.9237 109.662 37.1179 109.663 37.3131Z" fill="#71B32F"/>
<path d="M179.654 37.3125C179.651 36.7604 179.795 36.2175 180.073 35.7399C180.205 35.5135 180.365 35.305 180.55 35.1192C180.736 34.9337 180.945 34.7733 181.172 34.642C181.648 34.3694 182.188 34.2267 182.737 34.2283C183.14 34.2265 183.539 34.3042 183.912 34.4571C184.285 34.61 184.624 34.835 184.91 35.1192C185.189 35.4004 185.412 35.7325 185.566 36.0974C185.729 36.4816 185.811 36.8953 185.807 37.3125C185.808 37.5928 185.771 37.872 185.697 38.1424C185.626 38.4014 185.522 38.6503 185.388 38.8831C185.256 39.1104 185.095 39.3198 184.91 39.5062C184.724 39.6922 184.516 39.8533 184.289 39.9855C183.818 40.2604 183.282 40.4042 182.737 40.402C182.458 40.4031 182.179 40.3668 181.91 40.2939C181.652 40.2236 181.404 40.1199 181.173 39.9855C180.717 39.72 180.338 39.3401 180.074 38.8834C179.939 38.6508 179.835 38.4019 179.764 38.1427C179.69 37.8723 179.653 37.5932 179.655 37.3129M181.366 37.3129C181.364 37.5105 181.396 37.7069 181.461 37.8936C181.521 38.0656 181.613 38.2244 181.733 38.3613C181.852 38.4939 181.998 38.6004 182.16 38.6739C182.338 38.7529 182.53 38.7922 182.725 38.789C182.915 38.7919 183.103 38.7526 183.276 38.6739C183.435 38.6001 183.577 38.4936 183.693 38.3613C183.81 38.2242 183.899 38.0652 183.955 37.8936C184.077 37.5185 184.077 37.1142 183.955 36.7392C183.898 36.5644 183.809 36.4019 183.693 36.2599C183.576 36.1171 183.428 36.0027 183.26 35.9253C183.092 35.8479 182.909 35.8096 182.725 35.8132C182.536 35.8088 182.349 35.8466 182.177 35.9239C182.005 36.0012 181.853 36.116 181.731 36.2599C181.612 36.4017 181.519 36.5642 181.459 36.7392C181.395 36.9235 181.362 37.1174 181.363 37.3125" fill="#71B32F"/>
<path d="M186.673 37.3125C186.672 37.0314 186.709 36.7515 186.783 36.4802C186.922 35.9656 187.194 35.4964 187.57 35.1192C187.756 34.9336 187.964 34.7732 188.191 34.642C188.668 34.3694 189.208 34.2267 189.757 34.2283C190.16 34.2265 190.559 34.3042 190.932 34.4571C191.305 34.61 191.644 34.835 191.93 35.1192C192.209 35.4004 192.431 35.7325 192.586 36.0974C192.749 36.4816 192.831 36.8952 192.827 37.3125C192.828 37.5928 192.791 37.872 192.717 38.1424C192.646 38.4014 192.542 38.6503 192.408 38.8831C192.138 39.3469 191.752 39.7315 191.286 39.9981C190.821 40.2648 190.293 40.4041 189.757 40.402C189.477 40.4031 189.199 40.3667 188.929 40.2939C188.671 40.2236 188.424 40.1199 188.193 39.9855C187.737 39.72 187.358 39.3401 187.093 38.8834C186.959 38.6509 186.855 38.4019 186.784 38.1427C186.71 37.8724 186.673 37.5932 186.674 37.3129M188.385 37.3129C188.383 37.5105 188.416 37.707 188.481 37.8936C188.541 38.0656 188.633 38.2244 188.753 38.3613C188.872 38.4939 189.018 38.6003 189.18 38.6739C189.357 38.7529 189.55 38.7922 189.744 38.789C189.934 38.7919 190.122 38.7526 190.295 38.6739C190.455 38.6003 190.597 38.4938 190.712 38.3613C190.83 38.2242 190.919 38.0653 190.975 37.8936C191.097 37.5185 191.097 37.1142 190.975 36.7392C190.918 36.5644 190.829 36.4018 190.712 36.2599C190.595 36.1171 190.447 36.0028 190.279 35.9254C190.112 35.848 189.929 35.8097 189.744 35.8132C189.556 35.8091 189.369 35.8471 189.198 35.9244C189.026 36.0017 188.874 36.1163 188.753 36.2599C188.633 36.4017 188.541 36.5641 188.481 36.7392C188.416 36.9235 188.384 37.1173 188.384 37.3125" fill="#71B32F"/>
<path d="M115.403 34.6707C115.403 34.6176 115.415 34.5652 115.438 34.5174C115.458 34.4733 115.488 34.4341 115.525 34.4023C115.599 34.3515 115.687 34.324 115.778 34.323H116.486C116.535 34.3206 116.583 34.332 116.626 34.356C116.661 34.3777 116.69 34.4065 116.713 34.4405C116.737 34.4774 116.758 34.5168 116.774 34.5581C116.792 34.6034 116.813 34.6472 116.837 34.6893C116.843 34.7019 116.856 34.7325 116.874 34.7809C116.892 34.8293 116.914 34.8826 116.935 34.9409C116.956 34.9991 116.978 35.0539 116.999 35.1051C117.019 35.1563 117.034 35.1911 117.039 35.2065C117.132 35.1031 117.222 34.9942 117.308 34.8798C117.393 34.7684 117.484 34.6629 117.583 34.564C117.678 34.4681 117.787 34.3872 117.906 34.3244C118.036 34.2588 118.181 34.2264 118.327 34.23C118.478 34.2283 118.63 34.241 118.779 34.2679C118.908 34.2919 119.035 34.3288 119.156 34.3781C119.28 34.429 119.398 34.4913 119.51 34.564C119.627 34.6388 119.755 34.7272 119.892 34.8272C120.108 34.9442 120.149 35.1167 120.014 35.3447L119.589 36.0721C119.538 36.1576 119.455 36.2199 119.359 36.2458C119.259 36.2662 119.155 36.2511 119.064 36.203C118.945 36.0825 118.807 35.9832 118.654 35.9093C118.504 35.8431 118.342 35.8103 118.178 35.8132C118.069 35.8111 117.961 35.8284 117.858 35.8644C117.766 35.8985 117.681 35.9479 117.607 36.0104C117.528 36.0773 117.458 36.1529 117.396 36.2356C117.33 36.3233 117.265 36.4212 117.199 36.5276V39.9311C117.207 39.9815 117.202 40.0331 117.186 40.0814C117.17 40.1297 117.142 40.1734 117.105 40.2089C117.069 40.2443 117.024 40.2704 116.975 40.2851C116.926 40.2998 116.875 40.3026 116.825 40.2932H115.769C115.72 40.3005 115.669 40.2962 115.622 40.2806C115.574 40.265 115.531 40.2386 115.496 40.2035C115.46 40.1683 115.434 40.1254 115.418 40.0782C115.402 40.0309 115.397 39.9805 115.404 39.9311L115.403 34.6707Z" fill="#71B32F"/>
<path d="M153.052 35.3265C153.05 35.0416 153.114 34.7602 153.239 34.504C153.362 34.2493 153.532 34.0203 153.741 33.8293C153.952 33.6352 154.196 33.4807 154.462 33.3731C154.733 33.2623 155.023 33.2057 155.315 33.2065H155.409C155.455 33.2038 155.5 33.2111 155.543 33.2277C155.585 33.2443 155.623 33.2698 155.655 33.3026C155.716 33.3771 155.748 33.4721 155.742 33.5686V34.4661C155.746 34.5702 155.714 34.6723 155.651 34.7552C155.622 34.7923 155.586 34.822 155.544 34.8421C155.502 34.8621 155.455 34.8718 155.409 34.8703H155.316C155.252 34.8702 155.189 34.8821 155.129 34.9054C155.071 34.9284 155.017 34.9611 154.97 35.0023C154.924 35.0422 154.885 35.0908 154.858 35.1454C154.829 35.2015 154.815 35.2636 154.815 35.3265V35.8672H155.552C155.597 35.8643 155.641 35.8705 155.684 35.8854C155.726 35.9003 155.765 35.9236 155.798 35.9538C155.862 36.0305 155.893 36.1296 155.885 36.2293V37.0896C155.894 37.1957 155.863 37.3014 155.798 37.3858C155.766 37.4182 155.727 37.4434 155.685 37.4596C155.643 37.4758 155.597 37.4827 155.552 37.4798H154.815V40.8511C154.819 40.9024 154.809 40.9538 154.789 41.0009C154.768 41.048 154.736 41.0894 154.696 41.1216C154.622 41.1806 154.53 41.2129 154.436 41.2132H153.421C153.373 41.2155 153.324 41.2078 153.279 41.1905C153.234 41.1733 153.192 41.1468 153.157 41.1128C153.123 41.0788 153.095 41.0381 153.077 40.993C153.059 40.948 153.05 40.8996 153.051 40.8511V37.4795H152.568C152.471 37.4838 152.376 37.4501 152.303 37.3854C152.267 37.3458 152.239 37.299 152.222 37.248C152.204 37.197 152.198 37.1429 152.203 37.0893V36.2289C152.198 36.1785 152.205 36.1276 152.222 36.08C152.24 36.0324 152.267 35.9892 152.303 35.9535C152.378 35.8932 152.472 35.8624 152.568 35.8668H153.051L153.052 35.3265Z" fill="#71B32F"/>
<path d="M156.731 38.2315C156.73 37.9504 156.767 37.6704 156.84 37.3992C156.98 36.8846 157.251 36.4153 157.628 36.0381C157.813 35.8525 158.022 35.6921 158.249 35.5609C158.726 35.2883 159.266 35.1457 159.815 35.1472C160.218 35.1454 160.617 35.2232 160.99 35.3761C161.363 35.5289 161.702 35.7539 161.987 36.0381C162.267 36.3194 162.489 36.6516 162.644 37.0167C162.807 37.4007 162.889 37.814 162.885 38.2311C162.886 38.5114 162.849 38.7906 162.775 39.061C162.704 39.32 162.6 39.5689 162.466 39.8017C162.197 40.2653 161.81 40.6498 161.344 40.9164C160.879 41.183 160.352 41.3223 159.815 41.3203C159.536 41.3214 159.258 41.285 158.988 41.2122C158.73 41.1418 158.482 41.0382 158.251 40.9038C157.795 40.6382 157.416 40.2583 157.152 39.8017C157.017 39.5691 156.913 39.3201 156.842 39.061C156.768 38.7906 156.731 38.5114 156.732 38.2311M158.443 38.2311C158.442 38.4288 158.474 38.6252 158.539 38.8118C158.598 38.9843 158.691 39.1437 158.811 39.281C158.93 39.4136 159.075 39.52 159.238 39.5936C159.415 39.6726 159.608 39.7118 159.802 39.7087C159.992 39.7116 160.18 39.6723 160.353 39.5936C160.513 39.5201 160.655 39.4135 160.77 39.281C160.888 39.1439 160.977 38.9849 161.033 38.8132C161.155 38.4382 161.155 38.0339 161.033 37.6588C160.976 37.4841 160.887 37.3215 160.77 37.1795C160.653 37.0368 160.505 36.9224 160.338 36.8451C160.17 36.7677 159.987 36.7293 159.802 36.7329C159.614 36.7288 159.428 36.7668 159.256 36.8441C159.085 36.9214 158.933 37.036 158.811 37.1795C158.692 37.3213 158.6 37.4838 158.539 37.6588C158.475 37.8432 158.442 38.0372 158.443 38.2325" fill="#71B32F"/>
<path d="M164.184 35.59C164.184 35.5369 164.196 35.4845 164.219 35.4367C164.239 35.3926 164.269 35.3533 164.305 35.3216C164.38 35.2708 164.468 35.2432 164.559 35.2423H165.267C165.315 35.2398 165.364 35.2513 165.407 35.2753C165.441 35.2971 165.471 35.3259 165.494 35.3598C165.518 35.3967 165.539 35.4362 165.555 35.4774C165.573 35.5227 165.594 35.5666 165.618 35.6086C165.624 35.6213 165.637 35.6518 165.655 35.7002C165.673 35.7486 165.695 35.802 165.716 35.8602C165.737 35.9184 165.759 35.9732 165.78 36.0244C165.8 36.0756 165.815 36.1104 165.82 36.1258C165.913 36.0224 166.003 35.9135 166.089 35.7991C166.173 35.6876 166.265 35.5821 166.363 35.4834C166.458 35.3874 166.567 35.3066 166.687 35.2437C166.817 35.1781 166.962 35.1457 167.108 35.1493C167.259 35.1478 167.41 35.1605 167.56 35.1872C167.689 35.2112 167.815 35.2481 167.937 35.2974C168.06 35.3483 168.179 35.4105 168.29 35.4834C168.408 35.5581 168.536 35.6465 168.673 35.7465C168.889 35.8635 168.929 36.0359 168.795 36.2637L168.368 36.9925C168.317 37.0785 168.235 37.1414 168.138 37.1679C168.038 37.1885 167.934 37.1735 167.843 37.1255C167.725 37.0048 167.586 36.9054 167.434 36.8314C167.284 36.7652 167.121 36.7324 166.957 36.7353C166.848 36.7332 166.74 36.7505 166.637 36.7865C166.545 36.8207 166.461 36.87 166.386 36.9325C166.307 36.9994 166.237 37.075 166.175 37.1578C166.11 37.2457 166.044 37.343 165.978 37.4497V40.8532C165.985 40.9032 165.98 40.954 165.963 41.0016C165.947 41.0492 165.919 41.0921 165.883 41.127C165.846 41.1619 165.802 41.1876 165.754 41.2022C165.706 41.2167 165.655 41.2197 165.605 41.2108H164.549C164.5 41.218 164.449 41.2137 164.402 41.1981C164.354 41.1826 164.311 41.1562 164.276 41.121C164.24 41.0859 164.214 41.043 164.198 40.9957C164.182 40.9484 164.177 40.8981 164.184 40.8486V35.59Z" fill="#71B32F"/>
<path d="M121.286 34.4072C121.322 34.3747 121.367 34.352 121.414 34.3413C121.457 34.3321 121.5 34.3273 121.543 34.3269H122.251C122.301 34.3257 122.351 34.3362 122.396 34.3578C122.436 34.3772 122.472 34.4051 122.5 34.4395C122.529 34.4747 122.551 34.5142 122.568 34.5567C122.585 34.6009 122.601 34.6462 122.617 34.6932L122.762 35.2932C122.809 35.1957 122.867 35.0858 122.933 34.962C123.004 34.8337 123.094 34.7171 123.2 34.616C123.322 34.5008 123.463 34.4086 123.618 34.3437C123.816 34.2643 124.029 34.2268 124.243 34.2336C124.609 34.2249 124.972 34.313 125.293 34.489C125.591 34.6569 125.844 34.8924 126.033 35.1764C126.105 35.0647 126.187 34.9602 126.279 34.8644C126.39 34.7474 126.514 34.6442 126.649 34.5571C126.804 34.4586 126.97 34.3807 127.144 34.3255C127.343 34.2622 127.551 34.2313 127.76 34.2339C128.078 34.2263 128.394 34.2916 128.683 34.4248C128.971 34.558 129.226 34.7556 129.426 35.0023C129.627 35.249 129.778 35.5318 129.872 35.8353C129.975 36.1645 130.026 36.5078 130.024 36.8529V39.9318C130.031 40.0284 130.004 40.1243 129.947 40.2024C129.915 40.2348 129.877 40.2599 129.834 40.2757C129.792 40.2916 129.746 40.2978 129.701 40.2939H128.618C128.521 40.3044 128.423 40.2802 128.341 40.2255C128.312 40.1886 128.29 40.146 128.277 40.1004C128.264 40.0547 128.26 40.007 128.266 39.9599V36.8525C128.267 36.7244 128.246 36.597 128.203 36.4764C128.163 36.3653 128.104 36.2624 128.027 36.1729C127.952 36.0865 127.858 36.0175 127.753 35.9708C127.64 35.921 127.518 35.8961 127.394 35.8978C127.278 35.8972 127.163 35.9211 127.057 35.9679C126.952 36.0145 126.856 36.0807 126.776 36.163C126.693 36.2501 126.627 36.3523 126.582 36.4641C126.532 36.5874 126.507 36.7193 126.509 36.8522V39.9311C126.516 40.0276 126.488 40.1234 126.432 40.2017C126.4 40.2342 126.362 40.2592 126.319 40.2751C126.277 40.2909 126.231 40.2971 126.186 40.2932H125.104C125.006 40.3036 124.908 40.2794 124.827 40.2248C124.797 40.1878 124.775 40.1453 124.763 40.0996C124.75 40.054 124.746 40.0062 124.752 39.9592V36.8525C124.753 36.7248 124.733 36.5978 124.693 36.4764C124.657 36.3655 124.6 36.2625 124.525 36.1729C124.451 36.087 124.36 36.0181 124.257 35.9708C124.146 35.9207 124.026 35.8958 123.904 35.8978C123.79 35.898 123.678 35.9213 123.573 35.9662C123.465 36.0117 123.366 36.0769 123.282 36.1585C123.194 36.2453 123.121 36.3462 123.066 36.4571C123.008 36.5778 122.973 36.709 122.966 36.843V39.9459C122.966 40.0006 122.955 40.0549 122.935 40.1059C122.918 40.1548 122.886 40.1974 122.844 40.228C122.809 40.2507 122.77 40.2681 122.729 40.2796C122.689 40.2896 122.647 40.2944 122.605 40.2939H121.542C121.492 40.3018 121.441 40.298 121.392 40.2828C121.344 40.2677 121.3 40.2416 121.263 40.2066C121.226 40.1715 121.198 40.1286 121.181 40.0809C121.163 40.0333 121.157 39.9823 121.162 39.9318V34.6743C121.162 34.617 121.176 34.5606 121.203 34.51C121.228 34.4617 121.266 34.4212 121.313 34.3929L121.286 34.4072Z" fill="#71B32F"/>
<path d="M131.514 32.3107C131.508 32.2606 131.513 32.21 131.528 32.1618C131.542 32.1136 131.566 32.0688 131.598 32.03C131.672 31.9691 131.766 31.9396 131.861 31.9479H132.948C133.044 31.9433 133.137 31.9724 133.213 32.03C133.25 32.0662 133.278 32.1102 133.296 32.1588C133.313 32.2074 133.32 32.2593 133.314 32.3107V33.2275C133.313 33.2696 133.304 33.3111 133.288 33.35C133.27 33.3955 133.246 33.4383 133.215 33.477C133.184 33.5177 133.145 33.5519 133.101 33.5777C133.055 33.6047 133.002 33.6185 132.949 33.6177H131.861C131.63 33.6177 131.514 33.4877 131.514 33.2275L131.514 32.3107ZM131.514 34.6897C131.511 34.5963 131.541 34.5049 131.598 34.4311C131.63 34.3936 131.671 34.3643 131.716 34.3455C131.762 34.3268 131.812 34.3192 131.861 34.3233H132.934C132.976 34.3243 133.017 34.3329 133.056 34.3486C133.1 34.3666 133.141 34.3922 133.177 34.4244C133.215 34.4576 133.248 34.4965 133.274 34.5398C133.301 34.5852 133.315 34.6372 133.314 34.69V39.9318C133.317 39.9813 133.31 40.031 133.293 40.0777C133.276 40.1243 133.249 40.1668 133.215 40.2023C133.136 40.2678 133.036 40.3007 132.934 40.2939H131.861C131.629 40.2939 131.514 40.1732 131.514 39.9318L131.514 34.6897Z" fill="#71B32F"/>
<path d="M134.926 34.4072C134.962 34.3746 135.007 34.3519 135.054 34.3412C135.097 34.3321 135.14 34.3273 135.183 34.3268H135.891C135.941 34.3257 135.991 34.3362 136.036 34.3577C136.076 34.3772 136.112 34.4051 136.14 34.4395C136.168 34.4746 136.191 34.5142 136.208 34.5567C136.225 34.6009 136.243 34.6461 136.257 34.6932L136.402 35.2932C136.461 35.177 136.529 35.0661 136.606 34.9619C136.703 34.8311 136.817 34.7146 136.946 34.616C137.096 34.5012 137.261 34.4094 137.438 34.3437C137.648 34.2664 137.871 34.2291 138.096 34.2335C138.42 34.2279 138.742 34.2939 139.038 34.4267C139.334 34.5595 139.598 34.7559 139.809 35.0019C140.018 35.2477 140.18 35.5301 140.285 35.8349C140.399 36.162 140.456 36.5062 140.453 36.8525V39.9314C140.46 40.028 140.433 40.1239 140.376 40.202C140.344 40.2345 140.306 40.2595 140.263 40.2754C140.221 40.2912 140.175 40.2974 140.13 40.2935H139.047C138.95 40.3038 138.852 40.2796 138.771 40.2251C138.741 40.1881 138.719 40.1456 138.706 40.0999C138.693 40.0543 138.69 40.0066 138.695 39.9595V36.8991C138.696 36.766 138.665 36.6347 138.605 36.516C138.544 36.3957 138.462 36.2875 138.363 36.1967C138.264 36.1044 138.149 36.0303 138.024 35.9777C137.902 35.9255 137.771 35.8983 137.638 35.8977C137.519 35.8992 137.402 35.9248 137.294 35.9728C137.175 36.0244 137.065 36.0956 136.97 36.1833C136.871 36.2744 136.787 36.381 136.722 36.4991C136.655 36.6199 136.615 36.7542 136.607 36.8921V39.9479C136.607 40.0027 136.596 40.057 136.576 40.1079C136.559 40.157 136.527 40.1996 136.485 40.23C136.45 40.2529 136.411 40.2703 136.371 40.2816C136.33 40.2916 136.288 40.2964 136.246 40.296H135.187C135.134 40.301 135.081 40.2948 135.031 40.2778C134.981 40.2607 134.935 40.2332 134.896 40.197C134.834 40.1238 134.802 40.0297 134.807 39.9339V34.6742C134.806 34.617 134.82 34.5606 134.847 34.51C134.872 34.4616 134.91 34.4211 134.957 34.3928L134.926 34.4072Z" fill="#71B32F"/>
<path d="M146.254 40.0869C146.29 39.9689 146.307 39.8458 146.304 39.7224C146.302 39.5862 146.301 39.4475 146.301 39.3062C146.211 39.4038 146.118 39.5064 146.024 39.6143C145.93 39.7239 145.826 39.8246 145.713 39.9153C145.596 40.0095 145.466 40.0864 145.327 40.1438C145.167 40.2058 144.997 40.236 144.825 40.2325C144.425 40.2364 144.027 40.1629 143.654 40.016C143.306 39.8795 142.988 39.6743 142.721 39.4125C142.455 39.1483 142.246 38.8323 142.108 38.4841C141.957 38.1058 141.882 37.7017 141.887 37.2946C141.884 36.8823 141.959 36.4731 142.108 36.0886C142.247 35.726 142.455 35.3937 142.721 35.1104C142.992 34.8252 143.319 34.5989 143.681 34.4456C144.043 34.2924 144.433 34.2154 144.826 34.2195C145.005 34.2171 145.182 34.2474 145.349 34.309C145.499 34.3665 145.641 34.444 145.77 34.5395C145.896 34.6328 146.012 34.7386 146.117 34.8553C146.222 34.9729 146.321 35.0897 146.414 35.2062L146.592 34.6448C146.611 34.5914 146.627 34.543 146.644 34.4992C146.657 34.4591 146.678 34.4218 146.704 34.389C146.73 34.3585 146.763 34.335 146.8 34.3206C146.849 34.3034 146.901 34.2954 146.953 34.2971H147.653C147.693 34.2978 147.733 34.3026 147.772 34.3114C147.818 34.321 147.86 34.3439 147.892 34.3771C147.932 34.4079 147.965 34.4463 147.99 34.49C148.014 34.5383 148.025 34.5915 148.023 34.6451V39.4343C148.031 39.8816 147.95 40.326 147.784 40.7417C147.64 41.1052 147.419 41.4335 147.137 41.7044C146.854 41.9753 146.517 42.1824 146.148 42.3118C145.583 42.5125 144.977 42.5682 144.386 42.4736C144.19 42.4435 143.996 42.3988 143.807 42.3399C143.615 42.2804 143.428 42.2042 143.249 42.1122C143.078 42.0251 142.918 41.917 142.774 41.7904C142.737 41.7621 142.703 41.7288 142.675 41.6915C142.647 41.6537 142.627 41.6103 142.617 41.5641C142.605 41.5138 142.605 41.4618 142.617 41.4115C142.63 41.3495 142.657 41.291 142.694 41.2396L143.139 40.6238C143.196 40.5504 143.278 40.5005 143.369 40.4834C143.47 40.4881 143.566 40.5282 143.641 40.5967C143.719 40.6718 143.811 40.7328 143.91 40.7771C144.012 40.8225 144.117 40.8588 144.226 40.8855C144.33 40.9115 144.437 40.9286 144.544 40.9367C144.65 40.9448 144.744 40.9487 144.827 40.9487C144.976 40.9478 145.124 40.929 145.268 40.8925C145.418 40.8561 145.562 40.8 145.697 40.7255C145.827 40.6539 145.945 40.5626 146.047 40.455C146.147 40.3526 146.219 40.2265 146.256 40.0887M143.575 37.2964C143.573 37.4954 143.605 37.6933 143.671 37.8813C143.731 38.0538 143.824 38.2127 143.945 38.349C144.065 38.4816 144.211 38.5875 144.374 38.6595C144.549 38.7367 144.738 38.7753 144.93 38.7729C145.123 38.7742 145.315 38.7384 145.494 38.6676C145.666 38.6003 145.822 38.5004 145.956 38.3736C146.088 38.2471 146.195 38.0973 146.272 37.9318C146.352 37.7592 146.398 37.5723 146.405 37.382V37.2237C146.397 37.0357 146.351 36.8512 146.272 36.6806C146.194 36.5126 146.087 36.3597 145.956 36.229C145.823 36.098 145.666 35.9928 145.494 35.9188C145.316 35.842 145.124 35.803 144.93 35.8041C144.738 35.8017 144.548 35.8425 144.374 35.9237C144.211 36.0009 144.065 36.1105 143.945 36.2458C143.824 36.3849 143.731 36.5461 143.671 36.7206C143.606 36.905 143.574 37.0992 143.575 37.2946" fill="#71B32F"/>
<path d="M177.019 40.0869C177.056 39.9689 177.072 39.8458 177.069 39.7224C177.067 39.5862 177.066 39.4475 177.066 39.3062C176.975 39.4038 176.883 39.5064 176.789 39.6143C176.695 39.7238 176.591 39.8246 176.478 39.9153C176.361 40.0095 176.231 40.0864 176.092 40.1438C175.932 40.2058 175.762 40.236 175.59 40.2325C175.19 40.2364 174.792 40.1629 174.419 40.016C174.071 39.8796 173.753 39.6743 173.486 39.4125C173.22 39.1483 173.011 38.8323 172.873 38.4841C172.722 38.1058 172.647 37.7017 172.652 37.2946C172.649 36.8823 172.724 36.4731 172.873 36.0886C173.012 35.726 173.22 35.3937 173.486 35.1104C173.757 34.8252 174.084 34.599 174.446 34.4457C174.808 34.2924 175.198 34.2154 175.591 34.2195C175.769 34.2171 175.947 34.2474 176.114 34.309C176.264 34.3665 176.406 34.444 176.535 34.5395C176.661 34.6328 176.777 34.7386 176.881 34.8553C176.987 34.9729 177.086 35.0897 177.179 35.2062L177.357 34.6448C177.376 34.5914 177.392 34.543 177.408 34.4992C177.422 34.4591 177.442 34.4218 177.469 34.389C177.495 34.3585 177.528 34.3349 177.566 34.3206C177.614 34.3034 177.666 34.2954 177.717 34.2971H178.416C178.456 34.2978 178.496 34.3026 178.535 34.3114C178.581 34.321 178.623 34.3439 178.655 34.3771C178.695 34.4079 178.728 34.4463 178.753 34.49C178.777 34.5383 178.788 34.5915 178.786 34.6451V39.4343C178.794 39.8816 178.713 40.326 178.547 40.7417C178.403 41.1052 178.182 41.4335 177.9 41.7043C177.617 41.9752 177.28 42.1824 176.911 42.3118C176.346 42.5125 175.74 42.5682 175.149 42.4736C174.953 42.4435 174.759 42.3988 174.57 42.3399C174.378 42.2804 174.191 42.2042 174.012 42.1122C173.841 42.0251 173.681 41.9171 173.536 41.7904C173.499 41.762 173.466 41.7287 173.438 41.6915C173.41 41.6536 173.39 41.6102 173.38 41.5641C173.368 41.5138 173.368 41.4618 173.38 41.4115C173.393 41.3495 173.42 41.291 173.457 41.2396L173.902 40.6238C173.959 40.5504 174.041 40.5005 174.132 40.4834C174.233 40.4881 174.329 40.5282 174.404 40.5967C174.482 40.6718 174.574 40.7328 174.673 40.7771C174.775 40.8225 174.88 40.8588 174.989 40.8855C175.093 40.9115 175.2 40.9286 175.307 40.9367C175.413 40.9448 175.507 40.9487 175.59 40.9487C175.739 40.9479 175.887 40.929 176.031 40.8925C176.181 40.8561 176.325 40.7999 176.46 40.7255C176.59 40.6539 176.708 40.5626 176.811 40.455C176.91 40.3526 176.982 40.2265 177.019 40.0887M174.339 37.2964C174.336 37.4954 174.369 37.6933 174.434 37.8813C174.494 38.0538 174.587 38.2127 174.708 38.349C174.828 38.4817 174.974 38.5875 175.137 38.6595C175.312 38.7367 175.502 38.7753 175.693 38.7729C175.886 38.7742 176.078 38.7384 176.258 38.6676C176.429 38.6003 176.586 38.5004 176.719 38.3736C176.851 38.2471 176.958 38.0973 177.035 37.9318C177.115 37.7592 177.161 37.5723 177.169 37.382V37.2237C177.16 37.0357 177.115 36.8512 177.035 36.6806C176.957 36.5126 176.85 36.3597 176.719 36.229C176.586 36.098 176.429 35.9928 176.258 35.9188C176.079 35.842 175.887 35.803 175.693 35.8041C175.501 35.8016 175.311 35.8425 175.137 35.9237C174.974 36.0008 174.828 36.1104 174.708 36.2458C174.587 36.3849 174.494 36.5461 174.434 36.7206C174.37 36.905 174.337 37.0992 174.339 37.2946" fill="#71B32F"/>
<path fill-rule="evenodd" clip-rule="evenodd" d="M90.6953 13.6994V8.14354C90.6953 7.03161 90.8598 6.86669 91.9584 6.86669C92.7679 6.86669 93.5767 6.86424 94.3865 6.86669C95.2658 6.8688 95.6034 7.20073 95.6034 8.09477C95.6073 12.6263 95.6081 17.1575 95.6058 21.6885C95.6058 23.4819 95.61 25.2749 95.6034 27.0686C95.6005 27.9531 95.3862 28.1563 94.4963 28.1563C93.6676 28.1563 92.8402 28.1426 92.0118 28.1633C91.8437 28.1863 91.673 28.1482 91.5306 28.0559C91.3883 27.9637 91.2839 27.8233 91.2363 27.6605C91.0609 27.2089 90.8591 26.7678 90.6374 26.2482C90.4458 26.4271 90.2732 26.5847 90.1075 26.7486C88.7696 28.0721 87.2854 28.7714 85.2987 28.3952C84.1663 28.2152 83.0876 27.7871 82.1399 27.1415C81.1922 26.496 80.3988 25.649 79.8166 24.6612C78.5489 22.5748 78.3159 20.2776 78.8205 17.9113C79.4036 15.1745 80.9226 13.1573 83.5321 12.0902C85.3763 11.3365 87.2644 11.0506 89.0626 12.2639C89.4666 12.5706 89.8509 12.9022 90.2135 13.2569C90.3342 13.3622 90.4507 13.4741 90.6949 13.6983M83.2422 19.9769C83.2422 22.4959 84.8675 24.0713 86.9594 24.0601C87.4942 24.0768 88.0268 23.9846 88.5248 23.789C89.0229 23.5934 89.4759 23.2986 89.8564 22.9224C90.2369 22.5463 90.5369 22.0966 90.7382 21.6009C90.9394 21.1051 91.0378 20.5736 91.0272 20.0387C91.0446 19.4978 90.9535 18.9589 90.7593 18.4538C90.565 17.9487 90.2715 17.4876 89.8961 17.0978C89.5207 16.708 89.071 16.3974 88.5735 16.1843C88.0761 15.9711 87.541 15.8598 86.9998 15.8569C84.8394 15.8569 83.2521 17.5917 83.2422 19.9769Z" fill="#005298"/>
<path fill-rule="evenodd" clip-rule="evenodd" d="M110.467 14.085C110.704 13.4218 110.892 12.7958 111.158 12.2053C111.213 12.0847 111.294 11.9775 111.395 11.8914C111.496 11.8053 111.614 11.7422 111.742 11.7067C112.509 11.636 113.28 11.6323 114.048 11.6958C114.725 11.76 114.939 12.1102 114.942 12.8923C114.949 14.4211 114.944 15.9506 114.944 17.4808C114.944 20.6153 114.944 23.7498 114.944 26.8843C114.944 27.8857 114.672 28.1591 113.686 28.1591C112.952 28.1591 112.213 28.1149 111.484 28.1717C110.847 28.2219 110.56 27.9089 110.374 27.3752C110.254 27.032 110.104 26.7001 109.944 26.3057C109.571 26.6394 109.28 26.9005 108.989 27.1605C108.429 27.7029 107.745 28.0998 106.996 28.3162C106.247 28.5327 105.456 28.5621 104.693 28.4019C103.582 28.2316 102.517 27.8411 101.559 27.2533C100.601 26.6655 99.7707 25.8922 99.116 24.9788C98.4612 24.0654 97.9956 23.0305 97.7465 21.9346C97.4974 20.8388 97.4697 19.7043 97.6652 18.5976C97.8161 17.4765 98.1996 16.3994 98.7912 15.4352C99.3827 14.471 100.169 13.6411 101.1 12.9986C102.179 12.2545 103.412 11.7652 104.707 11.5678C107.013 11.1716 108.773 11.9951 110.159 13.8021C110.254 13.9047 110.357 13.9995 110.467 14.0857M105.917 15.859C103.882 15.8239 102.167 17.5727 102.186 19.9755C102.208 22.4506 103.672 24.039 105.925 24.0587C108.218 24.0794 109.963 22.3836 110.001 19.9913C110.006 19.4513 109.904 18.9156 109.702 18.415C109.499 17.9145 109.199 17.459 108.82 17.0748C108.44 16.6907 107.988 16.3854 107.49 16.1767C106.992 15.968 106.458 15.8599 105.918 15.8587" fill="#005298"/>
<path fill-rule="evenodd" clip-rule="evenodd" d="M121.369 14.2095C121.533 14.0148 121.654 13.8895 121.756 13.7491C122.931 12.1397 124.477 11.4333 126.493 11.5161C129.686 11.647 131.964 14.2923 132.384 17.0678C132.48 17.6805 132.532 18.2994 132.54 18.9197C132.557 21.6565 132.549 24.3934 132.547 27.1303C132.547 27.9647 132.35 28.1569 131.518 28.158C130.556 28.1592 129.596 28.1592 128.637 28.158C127.857 28.158 127.747 28.0527 127.747 27.2808C127.745 24.5439 127.745 21.8071 127.747 19.0702C127.725 18.3229 127.434 17.6085 126.928 17.0582C126.422 16.5078 125.734 16.1583 124.992 16.0737C123.848 15.9277 122.301 17.1242 122.015 18.3895C121.982 18.5944 121.97 18.8022 121.98 19.0095C121.98 21.6528 121.98 24.2954 121.98 26.9373C121.98 27.9338 121.748 28.1615 120.75 28.1615C119.828 28.1615 118.906 28.1643 117.983 28.1615C117.281 28.1583 116.999 27.9103 116.998 27.2289C116.991 22.3968 116.991 17.5641 116.998 12.7309C116.99 12.599 117.011 12.467 117.059 12.3441C117.107 12.2211 117.182 12.1103 117.278 12.0192C117.374 11.9282 117.488 11.8592 117.613 11.8171C117.739 11.775 117.871 11.7608 118.003 11.7754C118.642 11.7702 119.284 11.7958 119.922 11.767C120.13 11.74 120.34 11.79 120.513 11.9074C120.686 12.0248 120.81 12.2015 120.862 12.4042C121.042 12.9526 121.178 13.5155 121.371 14.2137" fill="#005298"/>
<path fill-rule="evenodd" clip-rule="evenodd" d="M53.3133 20.9667C53.5129 20.3664 53.7224 19.7618 53.9143 19.153C54.6161 16.924 55.3136 14.6938 56.007 12.4625C56.0533 12.2407 56.1822 12.0448 56.3675 11.9145C56.5529 11.7842 56.7808 11.7292 57.0052 11.7607C58.1522 11.7895 59.3021 11.8067 60.448 11.7579C61.2979 11.72 61.3544 12.2632 61.1333 12.8148C60.52 14.3404 59.8824 15.8583 59.2491 17.3762C57.9617 20.4639 56.662 23.5499 55.3831 26.6426C54.6255 28.4724 54.7799 28.1398 53.2312 28.1548C51.6522 28.1706 51.6648 28.1527 51.062 26.6738C49.2141 22.1395 47.3599 17.6068 45.4995 13.0758C45.2094 12.3639 45.249 11.6751 46.356 11.7569C47.2393 11.8075 48.1248 11.8095 49.0083 11.7628C50.3792 11.7123 50.2789 12.0084 50.6196 13.0285C51.4968 15.6513 52.3206 18.2916 53.1673 20.9232C53.1704 20.9331 53.2006 20.9338 53.3136 20.9681" fill="#005298"/>
<path fill-rule="evenodd" clip-rule="evenodd" d="M140.529 22.2535C140.529 23.8201 140.532 25.3858 140.529 26.9524C140.527 27.9349 140.307 28.1574 139.346 28.1574C138.481 28.1585 137.615 28.1585 136.75 28.1574C135.771 28.1574 135.538 27.924 135.536 26.9153C135.533 25.5005 135.536 24.0847 135.536 22.6696C135.536 20.9152 135.524 19.1591 135.543 17.4064C135.547 16.9619 135.451 16.7675 134.955 16.7777C133.837 16.8026 133.606 16.5468 133.606 15.4384C133.606 14.7594 133.606 14.0794 133.606 13.4004C133.606 12.5415 133.876 12.2629 134.743 12.2194C135.534 12.1787 135.536 12.1787 135.536 11.4029C135.536 10.7432 135.544 10.0825 135.534 9.42148C135.504 9.18628 135.559 8.94831 135.689 8.74964C135.818 8.55098 136.013 8.40441 136.24 8.33586C137.241 7.98112 138.225 7.57199 139.235 7.25725C140.185 6.96146 140.516 7.24217 140.527 8.25936C140.54 9.3927 140.544 10.5246 140.524 11.6566C140.517 12.0724 140.66 12.2415 141.078 12.2232C141.565 12.2018 142.057 12.1997 142.545 12.2232C143.292 12.2583 143.607 12.5447 143.629 13.2334C143.653 14.0833 143.66 14.9331 143.625 15.7815C143.593 16.5117 143.271 16.7836 142.549 16.7882C142.079 16.7882 141.608 16.8127 141.139 16.7805C140.676 16.7496 140.514 16.9071 140.521 17.3857C140.546 19.0082 140.531 20.6317 140.531 22.2542" fill="#005298"/>
<path fill-rule="evenodd" clip-rule="evenodd" d="M161.603 12.6275C161.588 12.1443 161.382 11.7664 160.857 11.7362C160.055 11.668 159.249 11.6602 158.445 11.7127C158.188 11.7376 157.889 12.1155 157.749 12.4015C157.504 12.9739 157.292 13.5597 157.114 14.1559C156.91 13.9022 156.798 13.7594 156.681 13.619C155.42 12.0752 153.871 11.292 151.813 11.5296C150.662 11.6286 149.544 11.969 148.533 12.5287C147.522 13.0883 146.641 13.8546 145.945 14.7776C145.034 15.9778 144.462 17.4007 144.289 18.8977C144.098 20.3563 144.283 21.8397 144.827 23.2065C145.222 24.2751 145.842 25.2464 146.645 26.0546C147.448 26.8627 148.415 27.4889 149.482 27.8907C150.809 28.4089 152.201 28.7679 153.652 28.3426C154.595 28.0188 155.448 27.476 156.14 26.7588C156.293 26.6184 156.464 26.4977 156.667 26.3324C156.855 26.8209 157.005 27.2205 157.163 27.6167C157.216 27.7885 157.327 27.9367 157.476 28.0362C157.626 28.1358 157.806 28.1805 157.985 28.163C158.775 28.1423 159.567 28.1574 160.356 28.156C161.378 28.156 161.608 27.9268 161.608 26.8981C161.608 22.6501 161.608 18.4021 161.608 14.1541C161.608 13.6447 161.618 13.1366 161.602 12.6253M152.575 24.0605C150.37 24.0145 148.891 22.4629 148.862 20.0107C148.832 17.5815 150.537 15.7924 152.718 15.8534C153.786 15.903 154.794 16.3629 155.531 17.1374C156.268 17.9118 156.678 18.9409 156.674 20.0099C156.68 20.5474 156.577 21.0806 156.373 21.5777C156.169 22.0748 155.866 22.5257 155.484 22.9036C155.102 23.2816 154.647 23.5788 154.148 23.7777C153.649 23.9765 153.114 24.0729 152.577 24.0612" fill="#005298"/>
<path fill-rule="evenodd" clip-rule="evenodd" d="M72.2524 21.5341C73.305 21.5296 74.3577 21.5268 75.4103 21.478C76.4492 21.4313 76.7819 21.0829 76.8208 20.1148C76.9489 16.8913 75.6899 14.3769 72.9534 12.6653C71.9768 12.0269 70.8646 11.6254 69.7054 11.493C68.5461 11.3605 67.372 11.5008 66.2766 11.9025C63.259 12.9478 61.4779 15.1338 60.8779 18.2534C60.4014 20.7313 60.8316 23.0573 62.4281 25.058C64.4509 27.5952 67.1008 28.7005 70.3415 28.3791C72.123 28.1768 73.7873 27.3897 75.0738 26.1408C75.1764 26.064 75.261 25.9657 75.3217 25.8527C75.3824 25.7398 75.4177 25.615 75.4251 25.487C75.4325 25.359 75.4119 25.2309 75.3647 25.1118C75.3175 24.9926 75.2448 24.8851 75.1517 24.797C74.7306 24.2903 74.2938 23.7987 73.851 23.3127C73.3685 22.7836 72.9826 22.8019 72.3892 23.232C70.9285 24.2913 69.3225 24.6917 67.5706 24.0889C66.4194 23.6924 65.5481 22.5819 65.5706 21.5345H66.1559C68.1878 21.5345 70.2197 21.5397 72.2524 21.5324M69.2552 15.4685C70.3825 15.5288 71.7496 16.6327 72.0699 17.7843H65.6871C65.9548 17.0666 66.4461 16.4541 67.0886 16.0371C67.7311 15.6201 68.4907 15.4207 69.2552 15.4685Z" fill="#005298"/>
</g>
<defs>
<clipPath id="clip0_36_126">
<rect width="200" height="41.6658" fill="white" transform="translate(0 0.85083)"/>
</clipPath>
</defs>
</svg>
